G04 #@! TF.FileFunction,Legend,Top*
%FSLAX46Y46*%
G04 Gerber Fmt 4.6, Leading zero omitted, Abs format (unit mm)*
G04 Created by KiCad (PCBNEW 0.201505162027+5655~23~ubuntu14.04.1-product) date Sa 13 Jun 2015 13:49:02 CEST*
%MOMM*%
G01*
G04 APERTURE LIST*
%ADD10C,0.100000*%
%ADD11C,0.150000*%
%ADD12C,0.127000*%
%ADD13C,0.152400*%
%ADD14C,0.125000*%
G04 APERTURE END LIST*
D10*
D11*
X171196000Y-76708000D02*
X171196000Y-69088000D01*
X166116000Y-76708000D02*
X166116000Y-69088000D01*
X170561000Y-76708000D02*
X171196000Y-76708000D01*
X166751000Y-76708000D02*
X166116000Y-76708000D01*
D12*
X171423000Y-69061000D02*
X171423000Y-66575000D01*
X171396000Y-66575000D02*
X169595000Y-66575000D01*
X167767000Y-69061000D02*
X165916000Y-69061000D01*
X165889000Y-69061000D02*
X165889000Y-66575000D01*
X165916000Y-66575000D02*
X167767000Y-66575000D01*
X169545000Y-69061000D02*
X171396000Y-69061000D01*
D11*
X157734000Y-62484000D02*
X160274000Y-62484000D01*
X160274000Y-65024000D02*
X157734000Y-65024000D01*
X160274000Y-65024000D02*
X165354000Y-65024000D01*
X165354000Y-65024000D02*
X165354000Y-62484000D01*
X165354000Y-62484000D02*
X160274000Y-62484000D01*
X157734000Y-62484000D02*
X157734000Y-65024000D01*
D12*
X169227500Y-63300000D02*
X170389500Y-63300000D01*
X170393500Y-63312000D02*
X170393500Y-65224000D01*
X170389500Y-65224000D02*
X169227500Y-65224000D01*
X168084500Y-65224000D02*
X166922500Y-65224000D01*
X166918500Y-65224000D02*
X166918500Y-63312000D01*
X166922500Y-63300000D02*
X168084500Y-63300000D01*
X162115500Y-67364000D02*
X163277500Y-67364000D01*
X163281500Y-67376000D02*
X163281500Y-69288000D01*
X163277500Y-69288000D02*
X162115500Y-69288000D01*
X160972500Y-69288000D02*
X159810500Y-69288000D01*
X159806500Y-69288000D02*
X159806500Y-67376000D01*
X159810500Y-67364000D02*
X160972500Y-67364000D01*
D11*
X159512000Y-75184000D02*
X159766000Y-75184000D01*
X159512000Y-75184000D02*
X159512000Y-76708000D01*
X159639000Y-76708000D02*
X159639000Y-75184000D01*
X159766000Y-75184000D02*
X159766000Y-76708000D01*
X163195000Y-75184000D02*
X163195000Y-76708000D01*
X159639000Y-75184000D02*
X163195000Y-75184000D01*
X163195000Y-76708000D02*
X159512000Y-76708000D01*
X161794000Y-75946000D02*
X162044000Y-75946000D01*
X161294000Y-75946000D02*
X161044000Y-75946000D01*
X161294000Y-75946000D02*
X161794000Y-75596000D01*
X161794000Y-75596000D02*
X161794000Y-76296000D01*
X161794000Y-76296000D02*
X161294000Y-75946000D01*
X161294000Y-75596000D02*
X161294000Y-76296000D01*
D13*
X162143440Y-71490840D02*
X160944560Y-71490840D01*
X162844480Y-73289160D02*
X161843720Y-73289160D01*
X160243520Y-73289160D02*
X161244280Y-73289160D01*
X163045140Y-73289160D02*
X162844480Y-73289160D01*
X163045140Y-73289160D02*
X163045140Y-71490840D01*
X163045140Y-71490840D02*
X162844480Y-71490840D01*
X160042860Y-71490840D02*
X160243520Y-71490840D01*
X160042860Y-73289160D02*
X160243520Y-73289160D01*
X160042860Y-71490840D02*
X160042860Y-73289160D01*
D12*
X166519286Y-71899429D02*
X166519286Y-71299429D01*
X166719286Y-71728000D01*
X166919286Y-71299429D01*
X166919286Y-71899429D01*
X167519286Y-71899429D02*
X167176429Y-71899429D01*
X167347857Y-71899429D02*
X167347857Y-71299429D01*
X167290714Y-71385143D01*
X167233572Y-71442286D01*
X167176429Y-71470857D01*
X166155999Y-72499571D02*
X166184570Y-72471000D01*
X166241713Y-72442429D01*
X166384570Y-72442429D01*
X166441713Y-72471000D01*
X166470284Y-72499571D01*
X166498856Y-72556714D01*
X166498856Y-72613857D01*
X166470284Y-72699571D01*
X166127427Y-73042429D01*
X166498856Y-73042429D01*
X167098856Y-73042429D02*
X166898856Y-72756714D01*
X166755999Y-73042429D02*
X166755999Y-72442429D01*
X166984571Y-72442429D01*
X167041713Y-72471000D01*
X167070285Y-72499571D01*
X167098856Y-72556714D01*
X167098856Y-72642429D01*
X167070285Y-72699571D01*
X167041713Y-72728143D01*
X166984571Y-72756714D01*
X166755999Y-72756714D01*
X167555999Y-72728143D02*
X167641713Y-72756714D01*
X167670285Y-72785286D01*
X167698856Y-72842429D01*
X167698856Y-72928143D01*
X167670285Y-72985286D01*
X167641713Y-73013857D01*
X167584571Y-73042429D01*
X167355999Y-73042429D01*
X167355999Y-72442429D01*
X167555999Y-72442429D01*
X167613142Y-72471000D01*
X167641713Y-72499571D01*
X167670285Y-72556714D01*
X167670285Y-72613857D01*
X167641713Y-72671000D01*
X167613142Y-72699571D01*
X167555999Y-72728143D01*
X167355999Y-72728143D01*
X168270285Y-73042429D02*
X167927428Y-73042429D01*
X168098856Y-73042429D02*
X168098856Y-72442429D01*
X168041713Y-72528143D01*
X167984571Y-72585286D01*
X167927428Y-72613857D01*
X168613142Y-72699571D02*
X168556000Y-72671000D01*
X168527428Y-72642429D01*
X168498857Y-72585286D01*
X168498857Y-72556714D01*
X168527428Y-72499571D01*
X168556000Y-72471000D01*
X168613142Y-72442429D01*
X168727428Y-72442429D01*
X168784571Y-72471000D01*
X168813142Y-72499571D01*
X168841714Y-72556714D01*
X168841714Y-72585286D01*
X168813142Y-72642429D01*
X168784571Y-72671000D01*
X168727428Y-72699571D01*
X168613142Y-72699571D01*
X168556000Y-72728143D01*
X168527428Y-72756714D01*
X168498857Y-72813857D01*
X168498857Y-72928143D01*
X168527428Y-72985286D01*
X168556000Y-73013857D01*
X168613142Y-73042429D01*
X168727428Y-73042429D01*
X168784571Y-73013857D01*
X168813142Y-72985286D01*
X168841714Y-72928143D01*
X168841714Y-72813857D01*
X168813142Y-72756714D01*
X168784571Y-72728143D01*
X168727428Y-72699571D01*
X169041714Y-72442429D02*
X169441714Y-72442429D01*
X169041714Y-73042429D01*
X169441714Y-73042429D01*
X169984572Y-73042429D02*
X169641715Y-73042429D01*
X169813143Y-73042429D02*
X169813143Y-72442429D01*
X169756000Y-72528143D01*
X169698858Y-72585286D01*
X169641715Y-72613857D01*
X170441715Y-72728143D02*
X170527429Y-72756714D01*
X170556001Y-72785286D01*
X170584572Y-72842429D01*
X170584572Y-72928143D01*
X170556001Y-72985286D01*
X170527429Y-73013857D01*
X170470287Y-73042429D01*
X170241715Y-73042429D01*
X170241715Y-72442429D01*
X170441715Y-72442429D01*
X170498858Y-72471000D01*
X170527429Y-72499571D01*
X170556001Y-72556714D01*
X170556001Y-72613857D01*
X170527429Y-72671000D01*
X170498858Y-72699571D01*
X170441715Y-72728143D01*
X170241715Y-72728143D01*
X171127429Y-72442429D02*
X170841715Y-72442429D01*
X170813144Y-72728143D01*
X170841715Y-72699571D01*
X170898858Y-72671000D01*
X171041715Y-72671000D01*
X171098858Y-72699571D01*
X171127429Y-72728143D01*
X171156001Y-72785286D01*
X171156001Y-72928143D01*
X171127429Y-72985286D01*
X171098858Y-73013857D01*
X171041715Y-73042429D01*
X170898858Y-73042429D01*
X170841715Y-73013857D01*
X170813144Y-72985286D01*
D14*
X164730953Y-65758190D02*
X164730953Y-65258190D01*
X164921429Y-65258190D01*
X164969048Y-65282000D01*
X164992857Y-65305810D01*
X165016667Y-65353429D01*
X165016667Y-65424857D01*
X164992857Y-65472476D01*
X164969048Y-65496286D01*
X164921429Y-65520095D01*
X164730953Y-65520095D01*
X165492857Y-65758190D02*
X165207143Y-65758190D01*
X165350000Y-65758190D02*
X165350000Y-65258190D01*
X165302381Y-65329619D01*
X165254762Y-65377238D01*
X165207143Y-65401048D01*
X166215190Y-64329381D02*
X165715190Y-64329381D01*
X165715190Y-64138905D01*
X165739000Y-64091286D01*
X165762810Y-64067477D01*
X165810429Y-64043667D01*
X165881857Y-64043667D01*
X165929476Y-64067477D01*
X165953286Y-64091286D01*
X165977095Y-64138905D01*
X165977095Y-64329381D01*
X165715190Y-63877000D02*
X166215190Y-63757953D01*
X165858048Y-63662715D01*
X166215190Y-63567477D01*
X165715190Y-63448429D01*
X166215190Y-63257952D02*
X165715190Y-63257952D01*
X166072333Y-63091286D01*
X165715190Y-62924619D01*
X166215190Y-62924619D01*
X161139239Y-65567714D02*
X161520191Y-65567714D01*
X161329715Y-65758190D02*
X161329715Y-65377238D01*
X161686858Y-65258190D02*
X161853525Y-65758190D01*
X162020191Y-65258190D01*
X156849000Y-64134953D02*
X156825190Y-64182572D01*
X156825190Y-64254000D01*
X156849000Y-64325429D01*
X156896619Y-64373048D01*
X156944238Y-64396857D01*
X157039476Y-64420667D01*
X157110905Y-64420667D01*
X157206143Y-64396857D01*
X157253762Y-64373048D01*
X157301381Y-64325429D01*
X157325190Y-64254000D01*
X157325190Y-64206381D01*
X157301381Y-64134953D01*
X157277571Y-64111143D01*
X157110905Y-64111143D01*
X157110905Y-64206381D01*
X157325190Y-63896857D02*
X156825190Y-63896857D01*
X157325190Y-63611143D01*
X156825190Y-63611143D01*
X157325190Y-63373047D02*
X156825190Y-63373047D01*
X156825190Y-63254000D01*
X156849000Y-63182571D01*
X156896619Y-63134952D01*
X156944238Y-63111143D01*
X157039476Y-63087333D01*
X157110905Y-63087333D01*
X157206143Y-63111143D01*
X157253762Y-63134952D01*
X157301381Y-63182571D01*
X157325190Y-63254000D01*
X157325190Y-63373047D01*
D12*
X170207000Y-66127286D02*
X170178429Y-66155857D01*
X170092715Y-66184429D01*
X170035572Y-66184429D01*
X169949857Y-66155857D01*
X169892715Y-66098714D01*
X169864143Y-66041571D01*
X169835572Y-65927286D01*
X169835572Y-65841571D01*
X169864143Y-65727286D01*
X169892715Y-65670143D01*
X169949857Y-65613000D01*
X170035572Y-65584429D01*
X170092715Y-65584429D01*
X170178429Y-65613000D01*
X170207000Y-65641571D01*
X170778429Y-66184429D02*
X170435572Y-66184429D01*
X170607000Y-66184429D02*
X170607000Y-65584429D01*
X170549857Y-65670143D01*
X170492715Y-65727286D01*
X170435572Y-65755857D01*
X166965428Y-66184429D02*
X166622571Y-66184429D01*
X166793999Y-66184429D02*
X166793999Y-65584429D01*
X166736856Y-65670143D01*
X166679714Y-65727286D01*
X166622571Y-65755857D01*
X167336857Y-65584429D02*
X167394000Y-65584429D01*
X167451143Y-65613000D01*
X167479714Y-65641571D01*
X167508285Y-65698714D01*
X167536857Y-65813000D01*
X167536857Y-65955857D01*
X167508285Y-66070143D01*
X167479714Y-66127286D01*
X167451143Y-66155857D01*
X167394000Y-66184429D01*
X167336857Y-66184429D01*
X167279714Y-66155857D01*
X167251143Y-66127286D01*
X167222571Y-66070143D01*
X167194000Y-65955857D01*
X167194000Y-65813000D01*
X167222571Y-65698714D01*
X167251143Y-65641571D01*
X167279714Y-65613000D01*
X167336857Y-65584429D01*
X167908286Y-65584429D02*
X167965429Y-65584429D01*
X168022572Y-65613000D01*
X168051143Y-65641571D01*
X168079714Y-65698714D01*
X168108286Y-65813000D01*
X168108286Y-65955857D01*
X168079714Y-66070143D01*
X168051143Y-66127286D01*
X168022572Y-66155857D01*
X167965429Y-66184429D01*
X167908286Y-66184429D01*
X167851143Y-66155857D01*
X167822572Y-66127286D01*
X167794000Y-66070143D01*
X167765429Y-65955857D01*
X167765429Y-65813000D01*
X167794000Y-65698714D01*
X167822572Y-65641571D01*
X167851143Y-65613000D01*
X167908286Y-65584429D01*
X168365429Y-65784429D02*
X168365429Y-66184429D01*
X168365429Y-65841571D02*
X168394001Y-65813000D01*
X168451143Y-65784429D01*
X168536858Y-65784429D01*
X168594001Y-65813000D01*
X168622572Y-65870143D01*
X168622572Y-66184429D01*
X169108286Y-65870143D02*
X168908286Y-65870143D01*
X168908286Y-66184429D02*
X168908286Y-65584429D01*
X169194000Y-65584429D01*
X160174000Y-66946429D02*
X159974000Y-66660714D01*
X159831143Y-66946429D02*
X159831143Y-66346429D01*
X160059715Y-66346429D01*
X160116857Y-66375000D01*
X160145429Y-66403571D01*
X160174000Y-66460714D01*
X160174000Y-66546429D01*
X160145429Y-66603571D01*
X160116857Y-66632143D01*
X160059715Y-66660714D01*
X159831143Y-66660714D01*
X160745429Y-66946429D02*
X160402572Y-66946429D01*
X160574000Y-66946429D02*
X160574000Y-66346429D01*
X160516857Y-66432143D01*
X160459715Y-66489286D01*
X160402572Y-66517857D01*
X161580571Y-66546429D02*
X161580571Y-66946429D01*
X161437714Y-66317857D02*
X161294857Y-66746429D01*
X161666285Y-66746429D01*
X161837714Y-66346429D02*
X162237714Y-66346429D01*
X161980571Y-66946429D01*
X162466286Y-66946429D02*
X162466286Y-66346429D01*
X162809143Y-66946429D02*
X162552000Y-66603571D01*
X162809143Y-66346429D02*
X162466286Y-66689286D01*
X159831143Y-77741429D02*
X159831143Y-77141429D01*
X159974000Y-77141429D01*
X160059715Y-77170000D01*
X160116857Y-77227143D01*
X160145429Y-77284286D01*
X160174000Y-77398571D01*
X160174000Y-77484286D01*
X160145429Y-77598571D01*
X160116857Y-77655714D01*
X160059715Y-77712857D01*
X159974000Y-77741429D01*
X159831143Y-77741429D01*
X160745429Y-77741429D02*
X160402572Y-77741429D01*
X160574000Y-77741429D02*
X160574000Y-77141429D01*
X160516857Y-77227143D01*
X160459715Y-77284286D01*
X160402572Y-77312857D01*
X161528285Y-77741429D02*
X161185428Y-77741429D01*
X161356856Y-77741429D02*
X161356856Y-77141429D01*
X161299713Y-77227143D01*
X161242571Y-77284286D01*
X161185428Y-77312857D01*
X161785428Y-77741429D02*
X161785428Y-77141429D01*
X162128285Y-77741429D01*
X162128285Y-77141429D01*
X162671142Y-77341429D02*
X162671142Y-77741429D01*
X162528285Y-77112857D02*
X162385428Y-77541429D01*
X162756856Y-77541429D01*
X163299714Y-77741429D02*
X162956857Y-77741429D01*
X163128285Y-77741429D02*
X163128285Y-77141429D01*
X163071142Y-77227143D01*
X163014000Y-77284286D01*
X162956857Y-77312857D01*
X163814000Y-77341429D02*
X163814000Y-77741429D01*
X163671143Y-77112857D02*
X163528286Y-77541429D01*
X163899714Y-77541429D01*
X164214000Y-77398571D02*
X164156858Y-77370000D01*
X164128286Y-77341429D01*
X164099715Y-77284286D01*
X164099715Y-77255714D01*
X164128286Y-77198571D01*
X164156858Y-77170000D01*
X164214000Y-77141429D01*
X164328286Y-77141429D01*
X164385429Y-77170000D01*
X164414000Y-77198571D01*
X164442572Y-77255714D01*
X164442572Y-77284286D01*
X164414000Y-77341429D01*
X164385429Y-77370000D01*
X164328286Y-77398571D01*
X164214000Y-77398571D01*
X164156858Y-77427143D01*
X164128286Y-77455714D01*
X164099715Y-77512857D01*
X164099715Y-77627143D01*
X164128286Y-77684286D01*
X164156858Y-77712857D01*
X164214000Y-77741429D01*
X164328286Y-77741429D01*
X164385429Y-77712857D01*
X164414000Y-77684286D01*
X164442572Y-77627143D01*
X164442572Y-77512857D01*
X164414000Y-77455714D01*
X164385429Y-77427143D01*
X164328286Y-77398571D01*
D13*
X161485943Y-72723829D02*
X161427886Y-72694800D01*
X161369829Y-72636743D01*
X161282743Y-72549657D01*
X161224686Y-72520629D01*
X161166629Y-72520629D01*
X161195657Y-72665771D02*
X161137600Y-72636743D01*
X161079543Y-72578686D01*
X161050514Y-72462571D01*
X161050514Y-72259371D01*
X161079543Y-72143257D01*
X161137600Y-72085200D01*
X161195657Y-72056171D01*
X161311771Y-72056171D01*
X161369829Y-72085200D01*
X161427886Y-72143257D01*
X161456914Y-72259371D01*
X161456914Y-72462571D01*
X161427886Y-72578686D01*
X161369829Y-72636743D01*
X161311771Y-72665771D01*
X161195657Y-72665771D01*
X162037486Y-72665771D02*
X161689143Y-72665771D01*
X161863315Y-72665771D02*
X161863315Y-72056171D01*
X161805258Y-72143257D01*
X161747200Y-72201314D01*
X161689143Y-72230343D01*
D10*
X163503429Y-73257228D02*
X163474400Y-73228199D01*
X163445371Y-73170142D01*
X163445371Y-73024999D01*
X163474400Y-72966942D01*
X163503429Y-72937913D01*
X163561486Y-72908885D01*
X163619543Y-72908885D01*
X163706629Y-72937913D01*
X164054971Y-73286256D01*
X164054971Y-72908885D01*
X164054971Y-72647628D02*
X163445371Y-72647628D01*
X164054971Y-72299285D01*
X163445371Y-72299285D01*
X163445371Y-72067056D02*
X163445371Y-71660656D01*
X164054971Y-71921913D01*
X163445371Y-71312314D02*
X163445371Y-71254257D01*
X163474400Y-71196200D01*
X163503429Y-71167171D01*
X163561486Y-71138142D01*
X163677600Y-71109114D01*
X163822743Y-71109114D01*
X163938857Y-71138142D01*
X163996914Y-71167171D01*
X164025943Y-71196200D01*
X164054971Y-71254257D01*
X164054971Y-71312314D01*
X164025943Y-71370371D01*
X163996914Y-71399400D01*
X163938857Y-71428428D01*
X163822743Y-71457457D01*
X163677600Y-71457457D01*
X163561486Y-71428428D01*
X163503429Y-71399400D01*
X163474400Y-71370371D01*
X163445371Y-71312314D01*
X163445371Y-70731743D02*
X163445371Y-70673686D01*
X163474400Y-70615629D01*
X163503429Y-70586600D01*
X163561486Y-70557571D01*
X163677600Y-70528543D01*
X163822743Y-70528543D01*
X163938857Y-70557571D01*
X163996914Y-70586600D01*
X164025943Y-70615629D01*
X164054971Y-70673686D01*
X164054971Y-70731743D01*
X164025943Y-70789800D01*
X163996914Y-70818829D01*
X163938857Y-70847857D01*
X163822743Y-70876886D01*
X163677600Y-70876886D01*
X163561486Y-70847857D01*
X163503429Y-70818829D01*
X163474400Y-70789800D01*
X163445371Y-70731743D01*
X163503429Y-70296315D02*
X163474400Y-70267286D01*
X163445371Y-70209229D01*
X163445371Y-70064086D01*
X163474400Y-70006029D01*
X163503429Y-69977000D01*
X163561486Y-69947972D01*
X163619543Y-69947972D01*
X163706629Y-69977000D01*
X164054971Y-70325343D01*
X164054971Y-69947972D01*
M02*
