G04 #@! TF.FileFunction,Copper,L1,Top,Signal*
%FSLAX46Y46*%
G04 Gerber Fmt 4.6, Leading zero omitted, Abs format (unit mm)*
G04 Created by KiCad (PCBNEW 0.201505162027+5655~23~ubuntu14.04.1-product) date Mi 10 Jun 2015 11:43:43 CEST*
%MOMM*%
G01*
G04 APERTURE LIST*
%ADD10C,0.100000*%
%ADD11R,2.200000X2.200000*%
%ADD12O,1.727200X2.032000*%
%ADD13R,1.727200X2.032000*%
%ADD14R,1.000000X1.397000*%
%ADD15R,0.750000X0.550000*%
%ADD16R,0.609600X0.889000*%
%ADD17C,0.400000*%
%ADD18C,0.250000*%
%ADD19C,0.254000*%
G04 APERTURE END LIST*
D10*
D11*
X170180000Y-67818000D03*
X167132000Y-67818000D03*
D12*
X159004000Y-64516000D03*
D13*
X161544000Y-64516000D03*
D12*
X164084000Y-64516000D03*
D14*
X169672000Y-64262000D03*
X167640000Y-64262000D03*
X162560000Y-68326000D03*
X160528000Y-68326000D03*
D15*
X160401000Y-75946000D03*
X162687000Y-75946000D03*
D16*
X160591500Y-71120000D03*
X162496500Y-71120000D03*
X161544000Y-73660000D03*
D17*
X163830000Y-70612000D02*
X163830000Y-69596000D01*
X163830000Y-74930000D02*
X163830000Y-70612000D01*
X162814000Y-75946000D02*
X163830000Y-74930000D01*
X165608000Y-67818000D02*
X167132000Y-67818000D01*
X163830000Y-69596000D02*
X165608000Y-67818000D01*
X167640000Y-64262000D02*
X167640000Y-65786000D01*
X167640000Y-65786000D02*
X167132000Y-66294000D01*
X167132000Y-66294000D02*
X167132000Y-67818000D01*
X162687000Y-75946000D02*
X162814000Y-75946000D01*
X161544000Y-73660000D02*
X161544000Y-74676000D01*
X161544000Y-74676000D02*
X162687000Y-75819000D01*
X162687000Y-75819000D02*
X162687000Y-75946000D01*
X160528000Y-68326000D02*
X160528000Y-71056500D01*
X160528000Y-71056500D02*
X160591500Y-71120000D01*
X159004000Y-64516000D02*
X159004000Y-67818000D01*
X159512000Y-68326000D02*
X160528000Y-68326000D01*
X159004000Y-67818000D02*
X159512000Y-68326000D01*
X169672000Y-64262000D02*
X169672000Y-65786000D01*
X170180000Y-66294000D02*
X170180000Y-67818000D01*
X169672000Y-65786000D02*
X170180000Y-66294000D01*
D18*
X162560000Y-68326000D02*
X162560000Y-71056500D01*
X162560000Y-71056500D02*
X162496500Y-71120000D01*
X164084000Y-64516000D02*
X164084000Y-67818000D01*
X163576000Y-68326000D02*
X162560000Y-68326000D01*
X164084000Y-67818000D02*
X163576000Y-68326000D01*
D19*
G36*
X172670000Y-76767534D02*
X172564735Y-77296738D01*
X172303181Y-77688179D01*
X171915000Y-77947554D01*
X171915000Y-69044310D01*
X171915000Y-68791691D01*
X171915000Y-68103750D01*
X171915000Y-67532250D01*
X171915000Y-66844309D01*
X171915000Y-66591690D01*
X171818327Y-66358301D01*
X171639698Y-66179673D01*
X171406309Y-66083000D01*
X170807000Y-66083000D01*
X170807000Y-65086810D01*
X170807000Y-64834191D01*
X170807000Y-64547750D01*
X170807000Y-63976250D01*
X170807000Y-63689809D01*
X170807000Y-63437190D01*
X170710327Y-63203801D01*
X170531698Y-63025173D01*
X170298309Y-62928500D01*
X169957750Y-62928500D01*
X169799000Y-63087250D01*
X169799000Y-64135000D01*
X170648250Y-64135000D01*
X170807000Y-63976250D01*
X170807000Y-64547750D01*
X170648250Y-64389000D01*
X169799000Y-64389000D01*
X169799000Y-65436750D01*
X169957750Y-65595500D01*
X170298309Y-65595500D01*
X170531698Y-65498827D01*
X170710327Y-65320199D01*
X170807000Y-65086810D01*
X170807000Y-66083000D01*
X170465750Y-66083000D01*
X170307000Y-66241750D01*
X170307000Y-67691000D01*
X171756250Y-67691000D01*
X171915000Y-67532250D01*
X171915000Y-68103750D01*
X171756250Y-67945000D01*
X170307000Y-67945000D01*
X170307000Y-69394250D01*
X170465750Y-69553000D01*
X171406309Y-69553000D01*
X171639698Y-69456327D01*
X171818327Y-69277699D01*
X171915000Y-69044310D01*
X171915000Y-77947554D01*
X171911738Y-77949734D01*
X171382533Y-78055000D01*
X170053000Y-78055000D01*
X170053000Y-69394250D01*
X170053000Y-67945000D01*
X170033000Y-67945000D01*
X170033000Y-67691000D01*
X170053000Y-67691000D01*
X170053000Y-66241750D01*
X169894250Y-66083000D01*
X168953691Y-66083000D01*
X168720302Y-66179673D01*
X168659376Y-66240597D01*
X168481640Y-66120623D01*
X168410847Y-66106426D01*
X168411439Y-66105541D01*
X168411439Y-66105540D01*
X168474999Y-65786000D01*
X168475000Y-65786000D01*
X168475000Y-65499952D01*
X168594927Y-65421173D01*
X168651232Y-65337758D01*
X168812302Y-65498827D01*
X169045691Y-65595500D01*
X169386250Y-65595500D01*
X169545000Y-65436750D01*
X169545000Y-64389000D01*
X169525000Y-64389000D01*
X169525000Y-64135000D01*
X169545000Y-64135000D01*
X169545000Y-63087250D01*
X169386250Y-62928500D01*
X169045691Y-62928500D01*
X168812302Y-63025173D01*
X168651510Y-63185963D01*
X168600673Y-63108573D01*
X168389640Y-62966123D01*
X168140000Y-62916060D01*
X167140000Y-62916060D01*
X166897877Y-62963037D01*
X166685073Y-63102827D01*
X166542623Y-63313860D01*
X166492560Y-63563500D01*
X166492560Y-64960500D01*
X166539537Y-65202623D01*
X166679327Y-65415427D01*
X166769103Y-65476027D01*
X166541566Y-65703566D01*
X166360561Y-65974459D01*
X166341445Y-66070560D01*
X166032000Y-66070560D01*
X165789877Y-66117537D01*
X165577073Y-66257327D01*
X165434623Y-66468360D01*
X165384560Y-66718000D01*
X165384560Y-67027444D01*
X165288460Y-67046560D01*
X165017566Y-67227566D01*
X164844000Y-67401132D01*
X164844000Y-65960648D01*
X165143670Y-65760415D01*
X165468526Y-65274234D01*
X165582600Y-64700745D01*
X165582600Y-64331255D01*
X165468526Y-63757766D01*
X165143670Y-63271585D01*
X164657489Y-62946729D01*
X164084000Y-62832655D01*
X163510511Y-62946729D01*
X163024330Y-63271585D01*
X163009499Y-63293780D01*
X162945927Y-63140302D01*
X162767299Y-62961673D01*
X162533910Y-62865000D01*
X162281291Y-62865000D01*
X161829750Y-62865000D01*
X161671000Y-63023750D01*
X161671000Y-64389000D01*
X161691000Y-64389000D01*
X161691000Y-64643000D01*
X161671000Y-64643000D01*
X161671000Y-66008250D01*
X161829750Y-66167000D01*
X162281291Y-66167000D01*
X162533910Y-66167000D01*
X162767299Y-66070327D01*
X162945927Y-65891698D01*
X163009499Y-65738219D01*
X163024330Y-65760415D01*
X163324000Y-65960648D01*
X163324000Y-67039816D01*
X163309640Y-67030123D01*
X163060000Y-66980060D01*
X162060000Y-66980060D01*
X161817877Y-67027037D01*
X161605073Y-67166827D01*
X161544168Y-67257054D01*
X161488673Y-67172573D01*
X161277640Y-67030123D01*
X161028000Y-66980060D01*
X160028000Y-66980060D01*
X159839000Y-67016730D01*
X159839000Y-65910534D01*
X160063670Y-65760415D01*
X160078500Y-65738219D01*
X160142073Y-65891698D01*
X160320701Y-66070327D01*
X160554090Y-66167000D01*
X160806709Y-66167000D01*
X161258250Y-66167000D01*
X161417000Y-66008250D01*
X161417000Y-64643000D01*
X161397000Y-64643000D01*
X161397000Y-64389000D01*
X161417000Y-64389000D01*
X161417000Y-63023750D01*
X161258250Y-62865000D01*
X160806709Y-62865000D01*
X160554090Y-62865000D01*
X160320701Y-62961673D01*
X160142073Y-63140302D01*
X160078500Y-63293780D01*
X160063670Y-63271585D01*
X159577489Y-62946729D01*
X159004000Y-62832655D01*
X158430511Y-62946729D01*
X157944330Y-63271585D01*
X157619474Y-63757766D01*
X157505400Y-64331255D01*
X157505400Y-64700745D01*
X157619474Y-65274234D01*
X157944330Y-65760415D01*
X158169000Y-65910534D01*
X158169000Y-67818000D01*
X158232561Y-68137541D01*
X158413566Y-68408434D01*
X158921565Y-68916434D01*
X158921566Y-68916434D01*
X159057012Y-69006936D01*
X159192459Y-69097439D01*
X159192460Y-69097439D01*
X159402830Y-69139284D01*
X159427537Y-69266623D01*
X159567327Y-69479427D01*
X159693000Y-69564257D01*
X159693000Y-70420412D01*
X159689323Y-70425860D01*
X159639260Y-70675500D01*
X159639260Y-71564500D01*
X159686237Y-71806623D01*
X159826027Y-72019427D01*
X160037060Y-72161877D01*
X160286700Y-72211940D01*
X160896300Y-72211940D01*
X161138423Y-72164963D01*
X161351227Y-72025173D01*
X161493677Y-71814140D01*
X161543740Y-71564500D01*
X161543740Y-70675500D01*
X161496763Y-70433377D01*
X161363000Y-70229747D01*
X161363000Y-69563952D01*
X161482927Y-69485173D01*
X161543831Y-69394945D01*
X161599327Y-69479427D01*
X161800000Y-69614883D01*
X161800000Y-70173293D01*
X161736773Y-70214827D01*
X161594323Y-70425860D01*
X161544260Y-70675500D01*
X161544260Y-71564500D01*
X161591237Y-71806623D01*
X161731027Y-72019427D01*
X161942060Y-72161877D01*
X162191700Y-72211940D01*
X162801300Y-72211940D01*
X162995000Y-72174358D01*
X162995000Y-74584132D01*
X162814000Y-74765132D01*
X162428780Y-74379912D01*
X162446177Y-74354140D01*
X162496240Y-74104500D01*
X162496240Y-73215500D01*
X162449263Y-72973377D01*
X162309473Y-72760573D01*
X162098440Y-72618123D01*
X161848800Y-72568060D01*
X161239200Y-72568060D01*
X160997077Y-72615037D01*
X160784273Y-72754827D01*
X160641823Y-72965860D01*
X160591760Y-73215500D01*
X160591760Y-74104500D01*
X160638737Y-74346623D01*
X160709000Y-74453585D01*
X160709000Y-74676000D01*
X160772561Y-74995541D01*
X160799594Y-75036000D01*
X160686750Y-75036000D01*
X160528000Y-75194750D01*
X160528000Y-75819000D01*
X161252250Y-75819000D01*
X161379191Y-75692059D01*
X161411000Y-75723868D01*
X161664560Y-75977428D01*
X161664560Y-76221000D01*
X161711537Y-76463123D01*
X161851327Y-76675927D01*
X162062360Y-76818377D01*
X162312000Y-76868440D01*
X163062000Y-76868440D01*
X163304123Y-76821463D01*
X163516927Y-76681673D01*
X163659377Y-76470640D01*
X163706824Y-76234043D01*
X164420434Y-75520434D01*
X164601439Y-75249541D01*
X164601439Y-75249540D01*
X164665000Y-74930000D01*
X164665000Y-70612000D01*
X164665000Y-69941868D01*
X165437566Y-69169301D01*
X165571327Y-69372927D01*
X165782360Y-69515377D01*
X166032000Y-69565440D01*
X168232000Y-69565440D01*
X168474123Y-69518463D01*
X168660202Y-69396228D01*
X168720302Y-69456327D01*
X168953691Y-69553000D01*
X169894250Y-69553000D01*
X170053000Y-69394250D01*
X170053000Y-78055000D01*
X161411000Y-78055000D01*
X161411000Y-76347310D01*
X161411000Y-76231750D01*
X161252250Y-76073000D01*
X160528000Y-76073000D01*
X160528000Y-76697250D01*
X160686750Y-76856000D01*
X160902309Y-76856000D01*
X161135698Y-76759327D01*
X161314327Y-76580699D01*
X161411000Y-76347310D01*
X161411000Y-78055000D01*
X160274000Y-78055000D01*
X160274000Y-76697250D01*
X160274000Y-76073000D01*
X160274000Y-75819000D01*
X160274000Y-75194750D01*
X160115250Y-75036000D01*
X159899691Y-75036000D01*
X159666302Y-75132673D01*
X159487673Y-75311301D01*
X159391000Y-75544690D01*
X159391000Y-75660250D01*
X159549750Y-75819000D01*
X160274000Y-75819000D01*
X160274000Y-76073000D01*
X159549750Y-76073000D01*
X159391000Y-76231750D01*
X159391000Y-76347310D01*
X159487673Y-76580699D01*
X159666302Y-76759327D01*
X159899691Y-76856000D01*
X160115250Y-76856000D01*
X160274000Y-76697250D01*
X160274000Y-78055000D01*
X157801465Y-78055000D01*
X157272261Y-77949735D01*
X156880820Y-77688181D01*
X156619265Y-77296738D01*
X156514000Y-76767533D01*
X156514000Y-63567466D01*
X156619265Y-63038261D01*
X156880820Y-62646818D01*
X157272261Y-62385264D01*
X157801465Y-62280000D01*
X171382533Y-62280000D01*
X171911738Y-62385265D01*
X172303181Y-62646820D01*
X172564735Y-63038261D01*
X172670000Y-63567465D01*
X172670000Y-76767534D01*
X172670000Y-76767534D01*
G37*
X172670000Y-76767534D02*
X172564735Y-77296738D01*
X172303181Y-77688179D01*
X171915000Y-77947554D01*
X171915000Y-69044310D01*
X171915000Y-68791691D01*
X171915000Y-68103750D01*
X171915000Y-67532250D01*
X171915000Y-66844309D01*
X171915000Y-66591690D01*
X171818327Y-66358301D01*
X171639698Y-66179673D01*
X171406309Y-66083000D01*
X170807000Y-66083000D01*
X170807000Y-65086810D01*
X170807000Y-64834191D01*
X170807000Y-64547750D01*
X170807000Y-63976250D01*
X170807000Y-63689809D01*
X170807000Y-63437190D01*
X170710327Y-63203801D01*
X170531698Y-63025173D01*
X170298309Y-62928500D01*
X169957750Y-62928500D01*
X169799000Y-63087250D01*
X169799000Y-64135000D01*
X170648250Y-64135000D01*
X170807000Y-63976250D01*
X170807000Y-64547750D01*
X170648250Y-64389000D01*
X169799000Y-64389000D01*
X169799000Y-65436750D01*
X169957750Y-65595500D01*
X170298309Y-65595500D01*
X170531698Y-65498827D01*
X170710327Y-65320199D01*
X170807000Y-65086810D01*
X170807000Y-66083000D01*
X170465750Y-66083000D01*
X170307000Y-66241750D01*
X170307000Y-67691000D01*
X171756250Y-67691000D01*
X171915000Y-67532250D01*
X171915000Y-68103750D01*
X171756250Y-67945000D01*
X170307000Y-67945000D01*
X170307000Y-69394250D01*
X170465750Y-69553000D01*
X171406309Y-69553000D01*
X171639698Y-69456327D01*
X171818327Y-69277699D01*
X171915000Y-69044310D01*
X171915000Y-77947554D01*
X171911738Y-77949734D01*
X171382533Y-78055000D01*
X170053000Y-78055000D01*
X170053000Y-69394250D01*
X170053000Y-67945000D01*
X170033000Y-67945000D01*
X170033000Y-67691000D01*
X170053000Y-67691000D01*
X170053000Y-66241750D01*
X169894250Y-66083000D01*
X168953691Y-66083000D01*
X168720302Y-66179673D01*
X168659376Y-66240597D01*
X168481640Y-66120623D01*
X168410847Y-66106426D01*
X168411439Y-66105541D01*
X168411439Y-66105540D01*
X168474999Y-65786000D01*
X168475000Y-65786000D01*
X168475000Y-65499952D01*
X168594927Y-65421173D01*
X168651232Y-65337758D01*
X168812302Y-65498827D01*
X169045691Y-65595500D01*
X169386250Y-65595500D01*
X169545000Y-65436750D01*
X169545000Y-64389000D01*
X169525000Y-64389000D01*
X169525000Y-64135000D01*
X169545000Y-64135000D01*
X169545000Y-63087250D01*
X169386250Y-62928500D01*
X169045691Y-62928500D01*
X168812302Y-63025173D01*
X168651510Y-63185963D01*
X168600673Y-63108573D01*
X168389640Y-62966123D01*
X168140000Y-62916060D01*
X167140000Y-62916060D01*
X166897877Y-62963037D01*
X166685073Y-63102827D01*
X166542623Y-63313860D01*
X166492560Y-63563500D01*
X166492560Y-64960500D01*
X166539537Y-65202623D01*
X166679327Y-65415427D01*
X166769103Y-65476027D01*
X166541566Y-65703566D01*
X166360561Y-65974459D01*
X166341445Y-66070560D01*
X166032000Y-66070560D01*
X165789877Y-66117537D01*
X165577073Y-66257327D01*
X165434623Y-66468360D01*
X165384560Y-66718000D01*
X165384560Y-67027444D01*
X165288460Y-67046560D01*
X165017566Y-67227566D01*
X164844000Y-67401132D01*
X164844000Y-65960648D01*
X165143670Y-65760415D01*
X165468526Y-65274234D01*
X165582600Y-64700745D01*
X165582600Y-64331255D01*
X165468526Y-63757766D01*
X165143670Y-63271585D01*
X164657489Y-62946729D01*
X164084000Y-62832655D01*
X163510511Y-62946729D01*
X163024330Y-63271585D01*
X163009499Y-63293780D01*
X162945927Y-63140302D01*
X162767299Y-62961673D01*
X162533910Y-62865000D01*
X162281291Y-62865000D01*
X161829750Y-62865000D01*
X161671000Y-63023750D01*
X161671000Y-64389000D01*
X161691000Y-64389000D01*
X161691000Y-64643000D01*
X161671000Y-64643000D01*
X161671000Y-66008250D01*
X161829750Y-66167000D01*
X162281291Y-66167000D01*
X162533910Y-66167000D01*
X162767299Y-66070327D01*
X162945927Y-65891698D01*
X163009499Y-65738219D01*
X163024330Y-65760415D01*
X163324000Y-65960648D01*
X163324000Y-67039816D01*
X163309640Y-67030123D01*
X163060000Y-66980060D01*
X162060000Y-66980060D01*
X161817877Y-67027037D01*
X161605073Y-67166827D01*
X161544168Y-67257054D01*
X161488673Y-67172573D01*
X161277640Y-67030123D01*
X161028000Y-66980060D01*
X160028000Y-66980060D01*
X159839000Y-67016730D01*
X159839000Y-65910534D01*
X160063670Y-65760415D01*
X160078500Y-65738219D01*
X160142073Y-65891698D01*
X160320701Y-66070327D01*
X160554090Y-66167000D01*
X160806709Y-66167000D01*
X161258250Y-66167000D01*
X161417000Y-66008250D01*
X161417000Y-64643000D01*
X161397000Y-64643000D01*
X161397000Y-64389000D01*
X161417000Y-64389000D01*
X161417000Y-63023750D01*
X161258250Y-62865000D01*
X160806709Y-62865000D01*
X160554090Y-62865000D01*
X160320701Y-62961673D01*
X160142073Y-63140302D01*
X160078500Y-63293780D01*
X160063670Y-63271585D01*
X159577489Y-62946729D01*
X159004000Y-62832655D01*
X158430511Y-62946729D01*
X157944330Y-63271585D01*
X157619474Y-63757766D01*
X157505400Y-64331255D01*
X157505400Y-64700745D01*
X157619474Y-65274234D01*
X157944330Y-65760415D01*
X158169000Y-65910534D01*
X158169000Y-67818000D01*
X158232561Y-68137541D01*
X158413566Y-68408434D01*
X158921565Y-68916434D01*
X158921566Y-68916434D01*
X159057012Y-69006936D01*
X159192459Y-69097439D01*
X159192460Y-69097439D01*
X159402830Y-69139284D01*
X159427537Y-69266623D01*
X159567327Y-69479427D01*
X159693000Y-69564257D01*
X159693000Y-70420412D01*
X159689323Y-70425860D01*
X159639260Y-70675500D01*
X159639260Y-71564500D01*
X159686237Y-71806623D01*
X159826027Y-72019427D01*
X160037060Y-72161877D01*
X160286700Y-72211940D01*
X160896300Y-72211940D01*
X161138423Y-72164963D01*
X161351227Y-72025173D01*
X161493677Y-71814140D01*
X161543740Y-71564500D01*
X161543740Y-70675500D01*
X161496763Y-70433377D01*
X161363000Y-70229747D01*
X161363000Y-69563952D01*
X161482927Y-69485173D01*
X161543831Y-69394945D01*
X161599327Y-69479427D01*
X161800000Y-69614883D01*
X161800000Y-70173293D01*
X161736773Y-70214827D01*
X161594323Y-70425860D01*
X161544260Y-70675500D01*
X161544260Y-71564500D01*
X161591237Y-71806623D01*
X161731027Y-72019427D01*
X161942060Y-72161877D01*
X162191700Y-72211940D01*
X162801300Y-72211940D01*
X162995000Y-72174358D01*
X162995000Y-74584132D01*
X162814000Y-74765132D01*
X162428780Y-74379912D01*
X162446177Y-74354140D01*
X162496240Y-74104500D01*
X162496240Y-73215500D01*
X162449263Y-72973377D01*
X162309473Y-72760573D01*
X162098440Y-72618123D01*
X161848800Y-72568060D01*
X161239200Y-72568060D01*
X160997077Y-72615037D01*
X160784273Y-72754827D01*
X160641823Y-72965860D01*
X160591760Y-73215500D01*
X160591760Y-74104500D01*
X160638737Y-74346623D01*
X160709000Y-74453585D01*
X160709000Y-74676000D01*
X160772561Y-74995541D01*
X160799594Y-75036000D01*
X160686750Y-75036000D01*
X160528000Y-75194750D01*
X160528000Y-75819000D01*
X161252250Y-75819000D01*
X161379191Y-75692059D01*
X161411000Y-75723868D01*
X161664560Y-75977428D01*
X161664560Y-76221000D01*
X161711537Y-76463123D01*
X161851327Y-76675927D01*
X162062360Y-76818377D01*
X162312000Y-76868440D01*
X163062000Y-76868440D01*
X163304123Y-76821463D01*
X163516927Y-76681673D01*
X163659377Y-76470640D01*
X163706824Y-76234043D01*
X164420434Y-75520434D01*
X164601439Y-75249541D01*
X164601439Y-75249540D01*
X164665000Y-74930000D01*
X164665000Y-70612000D01*
X164665000Y-69941868D01*
X165437566Y-69169301D01*
X165571327Y-69372927D01*
X165782360Y-69515377D01*
X166032000Y-69565440D01*
X168232000Y-69565440D01*
X168474123Y-69518463D01*
X168660202Y-69396228D01*
X168720302Y-69456327D01*
X168953691Y-69553000D01*
X169894250Y-69553000D01*
X170053000Y-69394250D01*
X170053000Y-78055000D01*
X161411000Y-78055000D01*
X161411000Y-76347310D01*
X161411000Y-76231750D01*
X161252250Y-76073000D01*
X160528000Y-76073000D01*
X160528000Y-76697250D01*
X160686750Y-76856000D01*
X160902309Y-76856000D01*
X161135698Y-76759327D01*
X161314327Y-76580699D01*
X161411000Y-76347310D01*
X161411000Y-78055000D01*
X160274000Y-78055000D01*
X160274000Y-76697250D01*
X160274000Y-76073000D01*
X160274000Y-75819000D01*
X160274000Y-75194750D01*
X160115250Y-75036000D01*
X159899691Y-75036000D01*
X159666302Y-75132673D01*
X159487673Y-75311301D01*
X159391000Y-75544690D01*
X159391000Y-75660250D01*
X159549750Y-75819000D01*
X160274000Y-75819000D01*
X160274000Y-76073000D01*
X159549750Y-76073000D01*
X159391000Y-76231750D01*
X159391000Y-76347310D01*
X159487673Y-76580699D01*
X159666302Y-76759327D01*
X159899691Y-76856000D01*
X160115250Y-76856000D01*
X160274000Y-76697250D01*
X160274000Y-78055000D01*
X157801465Y-78055000D01*
X157272261Y-77949735D01*
X156880820Y-77688181D01*
X156619265Y-77296738D01*
X156514000Y-76767533D01*
X156514000Y-63567466D01*
X156619265Y-63038261D01*
X156880820Y-62646818D01*
X157272261Y-62385264D01*
X157801465Y-62280000D01*
X171382533Y-62280000D01*
X171911738Y-62385265D01*
X172303181Y-62646820D01*
X172564735Y-63038261D01*
X172670000Y-63567465D01*
X172670000Y-76767534D01*
M02*
