M48
;DRILL file {KiCad 0.201505162027+5655~23~ubuntu14.04.1-product} date Mo 29 Jun 2015 18:08:17 CEST
;FORMAT={-:-/ absolute / metric / decimal}
FMAT,2
METRIC,TZ
T1C0.800
T2C0.900
T3C1.016
T4C1.321
T5C3.200
%
G90
G05
M71
T1
X68.555Y-60.96
X68.555Y-64.77
T2
X46.787Y-51.991
X48.895Y-39.713
X49.225Y-51.968
X50.749Y-56.439
X54.483Y-39.256
X54.483Y-41.796
X54.483Y-44.336
X54.483Y-46.876
X54.483Y-49.416
X57.277Y-43.193
X59.817Y-43.193
X62.357Y-43.193
X64.897Y-43.193
X67.437Y-43.193
X101.917Y-40.576
X101.968Y-62.674
X115.43Y-62.674
X116.992Y-48.108
X117.932Y-70.536
X118.618Y-47.346
X119.126Y-69.444
X127.825Y-62.674
X127.902Y-40.576
X141.491Y-62.674
X141.567Y-40.576
X142.9Y-48.184
X143.891Y-70.637
X144.577Y-47.371
X145.085Y-69.494
X153.556Y-40.576
X153.581Y-62.674
X167.221Y-40.576
X167.246Y-62.674
X168.351Y-48.057
X169.545Y-70.561
X170.231Y-47.346
X170.739Y-69.418
X179.184Y-40.576
X179.184Y-62.649
X192.849Y-40.576
X192.849Y-62.649
X193.294Y-47.879
X193.319Y-46.101
X194.005Y-69.748
X195.241Y-68.391
T3
X43.561Y-41.707
X43.561Y-44.247
X43.561Y-51.308
X43.561Y-53.848
X49.403Y-35.522
X51.943Y-35.522
X57.277Y-35.522
X57.277Y-51.321
X57.277Y-53.861
X59.817Y-35.522
X59.817Y-51.321
X59.817Y-53.861
X62.357Y-35.522
X62.357Y-51.321
X62.357Y-53.861
X64.897Y-35.522
X64.897Y-51.321
X64.897Y-53.861
X67.437Y-35.522
X67.437Y-51.321
X67.437Y-53.861
X72.263Y-35.522
X72.263Y-51.321
X72.263Y-53.861
X74.803Y-35.522
X74.803Y-51.321
X74.803Y-53.861
X77.343Y-35.522
X77.343Y-51.321
X77.343Y-53.861
X79.883Y-35.522
X79.883Y-51.321
X79.883Y-53.861
X97.917Y-35.369
X97.955Y-50.673
X97.955Y-57.417
X97.993Y-72.771
X100.457Y-35.369
X100.495Y-50.673
X100.495Y-57.417
X100.533Y-72.771
X102.997Y-35.369
X103.035Y-50.673
X103.035Y-57.417
X103.073Y-72.771
X105.537Y-35.369
X105.575Y-50.673
X105.575Y-57.417
X105.613Y-72.771
X108.077Y-35.369
X108.115Y-50.673
X108.115Y-57.417
X108.153Y-72.771
X110.617Y-35.369
X110.655Y-50.673
X110.655Y-57.417
X110.693Y-72.771
X113.157Y-35.369
X113.195Y-50.673
X113.195Y-57.417
X113.233Y-72.771
X115.697Y-35.369
X115.735Y-50.673
X115.735Y-57.417
X115.773Y-72.771
X123.787Y-57.429
X123.838Y-35.344
X123.838Y-72.771
X123.914Y-50.673
X126.327Y-57.429
X126.378Y-35.344
X126.378Y-72.771
X126.454Y-50.673
X128.867Y-57.429
X128.918Y-35.344
X128.918Y-72.771
X128.994Y-50.673
X131.407Y-57.429
X131.458Y-35.344
X131.458Y-72.771
X131.534Y-50.673
X133.947Y-57.429
X133.998Y-35.344
X133.998Y-72.771
X134.074Y-50.673
X136.487Y-57.429
X136.538Y-35.344
X136.538Y-72.771
X136.614Y-50.673
X139.027Y-57.429
X139.078Y-35.344
X139.078Y-72.771
X139.154Y-50.673
X141.567Y-57.429
X141.618Y-35.344
X141.618Y-72.771
X141.694Y-50.673
X149.517Y-35.357
X149.542Y-57.417
X149.555Y-50.648
X149.581Y-72.746
X152.057Y-35.357
X152.082Y-57.417
X152.095Y-50.648
X152.121Y-72.746
X154.597Y-35.357
X154.623Y-57.417
X154.635Y-50.648
X154.661Y-72.746
X157.137Y-35.357
X157.162Y-57.417
X157.175Y-50.648
X157.201Y-72.746
X159.677Y-35.357
X159.702Y-57.417
X159.715Y-50.648
X159.741Y-72.746
X162.217Y-35.357
X162.243Y-57.417
X162.255Y-50.648
X162.281Y-72.746
X164.757Y-35.357
X164.782Y-57.417
X164.795Y-50.648
X164.821Y-72.746
X167.297Y-35.357
X167.322Y-57.417
X167.335Y-50.648
X167.361Y-72.746
X175.146Y-57.417
X175.158Y-72.72
X175.171Y-35.382
X175.184Y-50.648
X177.686Y-57.417
X177.698Y-72.72
X177.711Y-35.382
X177.724Y-50.648
X180.226Y-57.417
X180.238Y-72.72
X180.251Y-35.382
X180.264Y-50.648
X182.766Y-57.417
X182.778Y-72.72
X182.791Y-35.382
X182.804Y-50.648
X185.306Y-57.417
X185.318Y-72.72
X185.331Y-35.382
X185.344Y-50.648
X187.846Y-57.417
X187.858Y-72.72
X187.871Y-35.382
X187.884Y-50.648
X190.386Y-57.417
X190.398Y-72.72
X190.411Y-35.382
X190.424Y-50.648
X192.926Y-57.417
X192.938Y-72.72
X192.951Y-35.382
X192.964Y-50.648
T4
X32.004Y-36.656
X32.004Y-41.656
X32.004Y-48.768
X32.004Y-53.768
X32.004Y-58.768
X32.004Y-66.04
X32.004Y-71.04
X43.256Y-75.26
X48.256Y-75.26
X53.256Y-75.26
X58.256Y-75.26
X65.456Y-75.286
X70.456Y-75.286
X75.456Y-75.286
X80.456Y-75.286
X86.5Y-53.899
X91.5Y-53.899
T5
X29.083Y-29.235
X29.083Y-78.283
X87.071Y-29.261
X87.071Y-78.283
X194.577Y-29.248
X194.577Y-78.295
T0
M30
